<?xml version="1.0" encoding="UTF-8" standalone="no"?>
<svg
   xmlns:dc="http://purl.org/dc/elements/1.1/"
   xmlns:cc="http://creativecommons.org/ns#"
   xmlns:rdf="http://www.w3.org/1999/02/22-rdf-syntax-ns#"
   xmlns:svg="http://www.w3.org/2000/svg"
   xmlns="http://www.w3.org/2000/svg"
   xmlns:sodipodi="http://sodipodi.sourceforge.net/DTD/sodipodi-0.dtd"
   xmlns:inkscape="http://www.inkscape.org/namespaces/inkscape"
   sodipodi:docname="PointyNoseMan.svg"
   inkscape:version="1.0 (4035a4fb49, 2020-05-01)"
   id="svg8"
   version="1.1"
   viewBox="0 0 27.765678 27.686373"
   height="27.686373mm"
   width="27.765678mm">
  <defs
     id="defs2" />
  <sodipodi:namedview
     inkscape:window-maximized="1"
     inkscape:window-y="-8"
     inkscape:window-x="-8"
     inkscape:window-height="1017"
     inkscape:window-width="1920"
     fit-margin-bottom="0"
     fit-margin-right="0"
     fit-margin-left="0"
     fit-margin-top="0"
     showgrid="false"
     inkscape:document-rotation="0"
     inkscape:current-layer="layer1"
     inkscape:document-units="mm"
     inkscape:cy="114.70754"
     inkscape:cx="-109.08108"
     inkscape:zoom="1.4"
     inkscape:pageshadow="2"
     inkscape:pageopacity="0.0"
     borderopacity="1.0"
     bordercolor="#666666"
     pagecolor="#ffffff"
     id="base" />
  <metadata
     id="metadata5">
    <rdf:RDF>
      <cc:Work
         rdf:about="">
        <dc:format>image/svg+xml</dc:format>
        <dc:type
           rdf:resource="http://purl.org/dc/dcmitype/StillImage" />
        <dc:title></dc:title>
      </cc:Work>
    </rdf:RDF>
  </metadata>
  <g
     transform="translate(-66.769115,-108.18006)"
     id="layer1"
     inkscape:groupmode="layer"
     inkscape:label="Layer 1">
    <path
       sodipodi:nodetypes="csssssssscscsscsssscsssscssccssccsccccssssssscssssssscssscsscccscscc"
       id="path209630"
       d="m 77.758074,135.68736 c -2.83882,-0.71645 -6.14709,-3.41532 -7.35765,-6.00234 -0.53658,-1.14669 -0.7632,-1.38004 -1.349,-1.38906 -1.50677,-0.0232 -2.60237,-2.42924 -2.19747,-4.82582 0.21241,-1.25726 1.35602,-2.59336 2.21974,-2.59336 0.32876,0 0.54952,-0.17113 0.54952,-0.42598 0,-0.82418 1.67364,-3.55332 2.98049,-4.86016 1.27279,-1.2728 4.05596,-2.91594 4.93904,-2.91594 0.26595,0 0.87296,-0.84595 1.61139,-2.24568 0.65159,-1.23512 1.32751,-2.24715 1.50204,-2.24896 0.17453,-0.002 0.81862,0.96025 1.4313,2.1379 0.61268,1.17765 1.30332,2.20344 1.53475,2.27953 3.42413,1.12587 6.03942,3.34948 7.46794,6.34953 0.71258,1.49649 1.05672,1.93013 1.72366,2.17189 1.05358,0.38191 1.73403,1.75037 1.72078,3.46067 -0.0173,2.23872 -0.95977,3.70553 -2.38081,3.70553 -0.35942,0 -0.7065,0.37916 -1.10989,1.21245 -0.97564,2.0154 -3.22976,4.21642 -5.43365,5.30564 -1.74545,0.86265 -2.20515,0.97215 -4.4039,1.04901 -1.35026,0.0472 -2.90198,-0.027 -3.44828,-0.16485 z m 7.47556,-1.7781 c 1.69941,-0.81568 3.93705,-2.9478 4.73481,-4.51154 2.38328,-4.6716 1.45871,-9.84378 -2.39791,-13.41433 -2.11243,-1.95573 -3.88444,-2.62526 -6.98093,-2.63765 -2.24552,-0.009 -2.52093,0.0526 -4.41103,0.98681 -6.09758,3.01372 -7.99754,10.31374 -4.16598,16.00645 2.93133,4.3552 8.4697,5.85081 13.22104,3.57026 z m -15.97282,-7.27779 c -0.0877,-0.32742 -0.16117,-1.51805 -0.16316,-2.64584 -0.004,-2.18578 -0.26407,-2.54386 -0.92285,-1.26991 -0.78498,1.51798 -0.23785,4.51106 0.8246,4.51106 0.30742,0 0.37792,-0.16056 0.26141,-0.59531 z m 23.7983,-0.06 c 0.57831,-0.88261 0.58778,-3.08407 0.017,-3.95517 -0.70462,-1.07538 -1.03502,-0.85185 -0.85072,0.57554 0.0892,0.69122 0.0587,1.88184 -0.068,2.64583 -0.26115,1.57566 0.13748,1.90007 0.90165,0.7338 z m -1.29474,-1.24643 c -0.0845,-0.21107 -0.14716,-0.14837 -0.15985,0.15985 -0.0115,0.27891 0.051,0.43519 0.13896,0.34727 0.0879,-0.0879 0.0973,-0.31613 0.0209,-0.50712 z m -22.22336,-1.73633 c -0.0666,-0.25466 -0.121,-0.0463 -0.121,0.46302 0,0.50932 0.0545,0.71768 0.121,0.46302 0.0666,-0.25466 0.0666,-0.67138 0,-0.92604 z m 22.22336,-0.90951 c -0.0845,-0.21106 -0.14716,-0.14837 -0.15985,0.15986 -0.0115,0.27891 0.051,0.43518 0.13896,0.34726 0.0879,-0.0879 0.0973,-0.31612 0.0209,-0.50712 z m -11.89407,-9.89982 c -0.0879,-0.0879 -0.31612,-0.0973 -0.50712,-0.0209 -0.21106,0.0845 -0.14837,0.14716 0.15986,0.15985 0.27891,0.0115 0.43518,-0.051 0.34726,-0.13896 z m 2.25447,-0.0154 c -0.1819,-0.0734 -0.47955,-0.0734 -0.66146,0 -0.1819,0.0734 -0.0331,0.13346 0.33073,0.13346 0.36381,0 0.51263,-0.0601 0.33073,-0.13346 z m -0.78918,-1.79837 -0.66492,-1.31215 -0.61698,1.17986 c -0.33934,0.64891 -0.62237,1.23938 -0.62894,1.31214 -0.007,0.0728 0.57028,0.13229 1.2819,0.13229 h 1.29385 z"
       style="fill:#000000;stroke-width:0.264583" />
  </g>
</svg>
